<?xml version="1.0" encoding="utf-8"?>
<!-- Generator: Adobe Illustrator 18.1.1, SVG Export Plug-In . SVG Version: 6.00 Build 0)  -->
<svg height="71" version="1.1" id="Слой_1" xmlns="http://www.w3.org/2000/svg" xmlns:xlink="http://www.w3.org/1999/xlink" x="0px" y="0px"
	 viewBox="0 0 147.2 214" enable-background="new 0 0 147.2 214" xml:space="preserve">
<g class="svg-color">
	<path d="M137.2,0H10C4.5,0,0,4.5,0,10v175.8C0,201.3,12.7,214,28.2,214H119c15.6,0,28.2-12.7,28.2-28.2V10
		C147.2,4.5,142.7,0,137.2,0L137.2,0z M137.6,185.8c0,10.3-8.3,18.6-18.6,18.6H28.2c-10.3,0-18.6-8.3-18.6-18.6V10
		c0-0.2,0.2-0.4,0.4-0.4h127.2c0.2,0,0.4,0.2,0.4,0.4V185.8z M137.6,185.8"/>
	<path d="M116.9,27.8H30.3c-2.7,0-4.8,2.1-4.8,4.8V63c0,2.6,2.1,4.8,4.8,4.8h86.6c2.7,0,4.8-2.2,4.8-4.8V32.6
		C121.7,30,119.6,27.8,116.9,27.8L116.9,27.8z M112.1,58.2h-77V37.4h77V58.2z M112.1,58.2"/>
	<path d="M49.2,128.9H30.3c-2.7,0-4.8,2.1-4.8,4.8v18.8c0,2.6,2.1,4.8,4.8,4.8h18.9c2.7,0,4.8-2.1,4.8-4.8v-18.8
		C54,131,51.9,128.9,49.2,128.9L49.2,128.9z M44.4,147.7h-9.3v-9.2h9.3V147.7z M44.4,147.7"/>
	<path d="M83.2,128.9H64.3c-2.7,0-4.8,2.1-4.8,4.8v18.8c0,2.6,2.1,4.8,4.8,4.8h18.9c2.6,0,4.8-2.1,4.8-4.8v-18.8
		C88,131,85.8,128.9,83.2,128.9L83.2,128.9z M78.4,147.7h-9.3v-9.2h9.3V147.7z M78.4,147.7"/>
	<path d="M49.2,96.1H30.3c-2.7,0-4.8,2.2-4.8,4.8v18.8c0,2.7,2.1,4.8,4.8,4.8h18.9c2.7,0,4.8-2.1,4.8-4.8v-18.8
		C54,98.2,51.9,96.1,49.2,96.1L49.2,96.1z M44.4,114.9h-9.3v-9.2h9.3V114.9z M44.4,114.9"/>
	<path d="M83.2,96.1H64.3c-2.7,0-4.8,2.2-4.8,4.8v18.8c0,2.7,2.1,4.8,4.8,4.8h18.9c2.6,0,4.8-2.1,4.8-4.8v-18.8
		C88,98.2,85.8,96.1,83.2,96.1L83.2,96.1z M78.4,114.9h-9.3v-9.2h9.3V114.9z M78.4,114.9"/>
	<path d="M116.9,96.1H98c-2.6,0-4.8,2.2-4.8,4.8v18.8c0,2.7,2.2,4.8,4.8,4.8h18.9c2.7,0,4.8-2.1,4.8-4.8v-18.8
		C121.7,98.2,119.6,96.1,116.9,96.1L116.9,96.1z M112.1,114.9h-9.3v-9.2h9.3V114.9z M112.1,114.9"/>
	<path d="M49.2,162.2H30.3c-2.7,0-4.8,2.1-4.8,4.8v18.8c0,2.6,2.1,4.8,4.8,4.8h18.9c2.7,0,4.8-2.2,4.8-4.8V167
		C54,164.4,51.9,162.2,49.2,162.2L49.2,162.2z M44.4,181h-9.3v-9.2h9.3V181z M44.4,181"/>
	<path d="M83.2,162.2H64.3c-2.7,0-4.8,2.1-4.8,4.8v18.8c0,2.6,2.1,4.8,4.8,4.8h18.9c2.6,0,4.8-2.2,4.8-4.8V167
		C88,164.4,85.8,162.2,83.2,162.2L83.2,162.2z M78.4,181h-9.3v-9.2h9.3V181z M78.4,181"/>
	<path d="M116.9,128.9H98c-2.6,0-4.8,2.1-4.8,4.8v52.2c0,2.6,2.2,4.8,4.8,4.8h18.9c2.7,0,4.8-2.2,4.8-4.8v-52.2
		C121.7,131,119.6,128.9,116.9,128.9L116.9,128.9z M112.1,181h-9.3v-42.6h9.3V181z M112.1,181"/>
</g>
</svg>
