<?xml version="1.0" encoding="utf-8"?>
<!-- Generator: Adobe Illustrator 18.1.1, SVG Export Plug-In . SVG Version: 6.00 Build 0)  -->
<svg height="71" version="1.1" id="Слой_1" xmlns="http://www.w3.org/2000/svg" xmlns:xlink="http://www.w3.org/1999/xlink" x="0px" y="0px"
	 viewBox="0 0 282.4 367.2" enable-background="new 0 0 282.4 367.2" xml:space="preserve">
<g class="svg-color">
	<path d="M274.8,0H63.6c-2,0-3.9,0.8-5.4,2.2l-56,56C0.8,59.7,0,61.6,0,63.6v296c0,4.2,3.4,7.6,7.6,7.6h267.2c4.2,0,7.6-3.4,7.6-7.6
		V7.6C282.4,3.4,279,0,274.8,0L274.8,0z M56,25.9V56H25.9L56,25.9z M267.2,352h-252V71.2h48.4c4.2,0,7.6-3.4,7.6-7.6V15.2h196V352z
		 M267.2,352"/>
	<path d="M62.7,171.5H99c4.2,0,7.6-3.4,7.6-7.6v-16.4c0-7.1-2.9-13.5-7.5-18.1c4.6-4.7,7.5-11.1,7.5-18.2
		c0-14.2-11.6-25.8-25.8-25.8c-14.2,0-25.7,11.6-25.7,25.8c0,7.1,2.9,13.5,7.5,18.2c-4.6,4.7-7.5,11.1-7.5,18.1v16.4
		C55.1,168.1,58.5,171.5,62.7,171.5L62.7,171.5z M91.4,156.3H70.3v-8.8c0-5.8,4.7-10.6,10.6-10.6c5.8,0,10.6,4.7,10.6,10.6V156.3z
		 M80.9,100.6c5.8,0,10.6,4.7,10.6,10.5c0,5.8-4.7,10.6-10.6,10.6c-5.8,0-10.6-4.7-10.6-10.6C70.3,105.3,75.1,100.6,80.9,100.6
		L80.9,100.6z M80.9,100.6"/>
	<path d="M89.2,55.2h104c4.2,0,7.6-3.4,7.6-7.6c0-4.2-3.4-7.6-7.6-7.6h-104c-4.2,0-7.6,3.4-7.6,7.6C81.6,51.8,85,55.2,89.2,55.2
		L89.2,55.2z M89.2,55.2"/>
	<path d="M139.2,87.6c0,4.2,3.4,7.6,7.6,7.6H230c4.2,0,7.6-3.4,7.6-7.6c0-4.2-3.4-7.6-7.6-7.6h-83.2C142.6,80,139.2,83.4,139.2,87.6
		L139.2,87.6z M139.2,87.6"/>
	<path d="M230,102.8h-83.2c-4.2,0-7.6,3.4-7.6,7.6c0,4.2,3.4,7.6,7.6,7.6H230c4.2,0,7.6-3.4,7.6-7.6
		C237.6,106.2,234.2,102.8,230,102.8L230,102.8z M230,102.8"/>
	<path d="M230,125.6h-83.2c-4.2,0-7.6,3.4-7.6,7.6c0,4.2,3.4,7.6,7.6,7.6H230c4.2,0,7.6-3.4,7.6-7.6
		C237.6,129,234.2,125.6,230,125.6L230,125.6z M230,125.6"/>
	<path d="M230,148.4h-83.2c-4.2,0-7.6,3.4-7.6,7.6c0,4.2,3.4,7.6,7.6,7.6H230c4.2,0,7.6-3.4,7.6-7.6
		C237.6,151.8,234.2,148.4,230,148.4L230,148.4z M230,148.4"/>
	<path d="M230,171.2h-83.2c-4.2,0-7.6,3.4-7.6,7.6c0,4.2,3.4,7.6,7.6,7.6H230c4.2,0,7.6-3.4,7.6-7.6
		C237.6,174.6,234.2,171.2,230,171.2L230,171.2z M230,171.2"/>
	<path d="M230,209.6H52.4c-4.2,0-7.6,3.4-7.6,7.6c0,4.2,3.4,7.6,7.6,7.6H230c4.2,0,7.6-3.4,7.6-7.6C237.6,213,234.2,209.6,230,209.6
		L230,209.6z M230,209.6"/>
	<path d="M230,232.4H52.4c-4.2,0-7.6,3.4-7.6,7.6c0,4.2,3.4,7.6,7.6,7.6H230c4.2,0,7.6-3.4,7.6-7.6
		C237.6,235.8,234.2,232.4,230,232.4L230,232.4z M230,232.4"/>
	<path d="M230,255.2H52.4c-4.2,0-7.6,3.4-7.6,7.6c0,4.2,3.4,7.6,7.6,7.6H230c4.2,0,7.6-3.4,7.6-7.6
		C237.6,258.6,234.2,255.2,230,255.2L230,255.2z M230,255.2"/>
	<path d="M230,278H52.4c-4.2,0-7.6,3.4-7.6,7.6c0,4.2,3.4,7.6,7.6,7.6H230c4.2,0,7.6-3.4,7.6-7.6C237.6,281.4,234.2,278,230,278
		L230,278z M230,278"/>
	<path d="M230,300.8H52.4c-4.2,0-7.6,3.4-7.6,7.6c0,4.2,3.4,7.6,7.6,7.6H230c4.2,0,7.6-3.4,7.6-7.6
		C237.6,304.2,234.2,300.8,230,300.8L230,300.8z M230,300.8"/>
</g>
</svg>
