<?xml version="1.0" encoding="utf-8"?>
<!-- Generator: Adobe Illustrator 18.1.1, SVG Export Plug-In . SVG Version: 6.00 Build 0)  -->
<svg version="1.1" id="Слой_1" xmlns="http://www.w3.org/2000/svg" xmlns:xlink="http://www.w3.org/1999/xlink" x="0px" y="0px"
	 viewBox="0 0 346.4 332.4" enable-background="new 0 0 346.4 332.4" xml:space="preserve">
<path d="M338.8,173.2h-19.3v-39.7c5.8-2.8,9.8-8.8,9.8-15.6V87.6c0-14.5-7.7-27.3-19.1-34.5c5.8-5.6,9.4-13.5,9.4-22.2
	c0-17.1-13.9-30.9-30.9-30.9c-17.1,0-30.9,13.9-30.9,30.9c0,8.7,3.6,16.5,9.4,22.2c-11.5,7.2-19.1,20-19.1,34.5v30.4
	c0,6.8,4,12.8,9.8,15.6v39.7h-29.3c-4.2,0-7.6,3.4-7.6,7.6v40.4H205v-39.7c5.8-2.8,9.8-8.8,9.8-15.6v-30.4
	c0-14.5-7.7-27.3-19.1-34.5c5.8-5.6,9.4-13.5,9.4-22.2c0-17.1-13.9-30.9-30.9-30.9c-17.1,0-30.9,13.9-30.9,30.9
	c0,8.7,3.6,16.5,9.4,22.2c-11.5,7.2-19.1,20-19.1,34.5v30.4c0,6.8,4,12.8,9.8,15.6v39.7H118c-4.2,0-7.6,3.4-7.6,7.6v40.4H90.6v-39.7
	c5.8-2.8,9.8-8.8,9.8-15.6v-30.4c0-14.5-7.7-27.3-19.1-34.5c5.8-5.6,9.4-13.5,9.4-22.2c0-17.1-13.9-30.9-30.9-30.9
	s-30.9,13.9-30.9,30.9c0,8.7,3.6,16.5,9.4,22.2c-11.5,7.2-19.1,20-19.1,34.5v30.4c0,6.8,4,12.8,9.8,15.6v39.7H7.6
	c-4.2,0-7.6,3.4-7.6,7.6v48c0,4.2,3.4,7.6,7.6,7.6c4.2,0,7.6-3.4,7.6-7.6v-40.4H118c4.2,0,7.6-3.4,7.6-7.6v-40.4h102.8
	c4.2,0,7.6-3.4,7.6-7.6v-40.4h102.8c4.2,0,7.6-3.4,7.6-7.6C346.4,176.7,343,173.2,338.8,173.2L338.8,173.2z M75.4,126.9
	c0,8.7-7.1,15.7-15.7,15.7c-8.7,0-15.7-7.1-15.7-15.7s7.1-15.7,15.7-15.7C68.3,111.2,75.4,118.3,75.4,126.9L75.4,126.9z M67.2,269.2
	v-39c0-4.2-3.4-7.6-7.6-7.6c-4.2,0-7.6,3.4-7.6,7.6v39h-8.1v-45.5c0-4.2-3.4-7.6-7.6-7.6c-1.2,0-2.2-1-2.2-2.2v-30.3
	c0-14.1,11.4-25.5,25.5-25.5c14.1,0,25.5,11.4,25.5,25.5v30.3c0,1.2-1,2.2-2.2,2.2c-4.2,0-7.6,3.4-7.6,7.6v45.5H67.2z M189.8,78.9
	c0,8.7-7.1,15.7-15.7,15.7c-8.7,0-15.7-7.1-15.7-15.7c0-8.7,7.1-15.7,15.7-15.7C182.8,63.2,189.8,70.3,189.8,78.9L189.8,78.9z
	 M181.7,221.2v-39c0-4.2-3.4-7.6-7.6-7.6c-4.2,0-7.6,3.4-7.6,7.6v39h-8.1v-45.5c0-4.2-3.4-7.6-7.6-7.6c-1.2,0-2.2-1-2.2-2.2v-30.3
	c0-14.1,11.4-25.5,25.5-25.5c14.1,0,25.5,11.4,25.5,25.5v30.3c0,1.2-1,2.2-2.2,2.2c-4.2,0-7.6,3.4-7.6,7.6v45.5H181.7z M304.3,30.9
	c0,8.7-7.1,15.7-15.7,15.7c-8.7,0-15.7-7.1-15.7-15.7c0-8.7,7.1-15.7,15.7-15.7C297.3,15.2,304.3,22.3,304.3,30.9L304.3,30.9z
	 M296.2,173.2v-39c0-4.2-3.4-7.6-7.6-7.6c-4.2,0-7.6,3.4-7.6,7.6v39h-8.1v-45.5c0-4.2-3.4-7.6-7.6-7.6c-1.2,0-2.2-1-2.2-2.2V87.6
	c0-14.1,11.4-25.5,25.5-25.5c14.1,0,25.5,11.4,25.5,25.5v30.3c0,1.2-1,2.2-2.2,2.2c-4.2,0-7.6,3.4-7.6,7.6v45.5H296.2z M296.2,173.2
	"/>
</svg>
