<?xml version="1.0" encoding="utf-8"?>
<!-- Generator: Adobe Illustrator 18.1.1, SVG Export Plug-In . SVG Version: 6.00 Build 0)  -->
<svg version="1.1" id="Слой_1" xmlns="http://www.w3.org/2000/svg" xmlns:xlink="http://www.w3.org/1999/xlink" x="0px" y="0px"
	 viewBox="0 0 285 391.1" enable-background="new 0 0 285 391.1" xml:space="preserve">
<g>
	
		<image display="none" overflow="visible" width="52" height="70" xlink:href="C:\Users\user\Desktop\Без-имени-2.png"  transform="matrix(5.5513 0 0 5.5513 -2 3.6667)">
	</image>
	<g>
		<path d="M62.1,253.2c6.1-5.7,9.9-13.7,9.9-22.7c0-17.1-13.9-31-31-31c-17.1,0-31,13.9-31,31c0,9,3.8,17.1,9.9,22.7
			C8,260.4,0,273.4,0,288.4v31.1c0,6.9,4.1,12.9,10,15.5v42.1c0,7.7,6.3,13.9,13.9,13.9h34.1c7.7,0,13.9-6.3,13.9-13.9V335
			c5.9-2.7,10-8.6,10-15.5v-31.1C82,273.4,74,260.4,62.1,253.2L62.1,253.2z M24.1,230.5c0-9.3,7.6-16.9,16.9-16.9
			c9.3,0,16.9,7.6,16.9,16.9c0,9.3-7.6,16.9-16.9,16.9C31.7,247.3,24.1,239.8,24.1,230.5L24.1,230.5z M67.9,319.5c0,1.6-1.3,3-3,3
			c-3.9,0-7.1,3.2-7.1,7.1V377h-9.8v-40.8c0-3.9-3.2-7-7.1-7c-3.9,0-7,3.2-7,7V377h-9.8v-47.5c0-3.9-3.2-7.1-7.1-7.1
			c-1.6,0-3-1.3-3-3v-31.1c0-14.8,12.1-26.9,26.9-26.9c14.8,0,26.9,12.1,26.9,26.9V319.5z M67.9,319.5"/>
		<path d="M163.5,253.2c6.1-5.7,9.9-13.7,9.9-22.7c0-17.1-13.9-31-31-31c-17.1,0-31,13.9-31,31c0,9,3.8,17.1,9.9,22.7
			c-11.9,7.2-20,20.3-20,35.2v31.1c0,6.9,4.1,12.9,10,15.5v42.1c0,7.7,6.3,13.9,13.9,13.9h34.1c7.7,0,13.9-6.3,13.9-13.9V335
			c5.9-2.7,10-8.6,10-15.5v-31.1C183.5,273.4,175.5,260.4,163.5,253.2L163.5,253.2z M125.6,230.5c0-9.3,7.6-16.9,16.9-16.9
			c9.3,0,16.9,7.6,16.9,16.9c0,9.3-7.6,16.9-16.9,16.9C133.2,247.3,125.6,239.8,125.6,230.5L125.6,230.5z M169.4,319.5
			c0,1.6-1.3,3-3,3c-3.9,0-7.1,3.2-7.1,7.1V377h-9.8v-40.8c0-3.9-3.2-7-7.1-7c-3.9,0-7,3.2-7,7V377h-9.8v-47.5
			c0-3.9-3.2-7.1-7.1-7.1c-1.6,0-3-1.3-3-3v-31.1c0-14.8,12.1-26.9,26.9-26.9c14.8,0,26.9,12.1,26.9,26.9V319.5z M169.4,319.5"/>
		<path d="M265,253.2c6.1-5.7,9.9-13.7,9.9-22.7c0-17.1-13.9-31-31-31c-17.1,0-31,13.9-31,31c0,9,3.8,17.1,9.9,22.7
			c-11.9,7.2-20,20.3-20,35.2v31.1c0,6.9,4.1,12.9,10,15.5v42.1c0,7.7,6.3,13.9,13.9,13.9H261c7.7,0,13.9-6.3,13.9-13.9V335
			c5.9-2.7,10-8.6,10-15.5v-31.1C285,273.4,277,260.4,265,253.2L265,253.2z M227.1,230.5c0-9.3,7.6-16.9,16.9-16.9
			c9.3,0,16.9,7.6,16.9,16.9c0,9.3-7.6,16.9-16.9,16.9C234.7,247.3,227.1,239.8,227.1,230.5L227.1,230.5z M270.9,319.5
			c0,1.6-1.3,3-3,3c-3.9,0-7.1,3.2-7.1,7.1V377H251v-40.8c0-3.9-3.2-7-7.1-7c-3.9,0-7,3.2-7,7V377h-9.8v-47.5c0-3.9-3.2-7.1-7.1-7.1
			c-1.6,0-3-1.3-3-3v-31.1c0-14.8,12.1-26.9,26.9-26.9c14.8,0,26.9,12.1,26.9,26.9V319.5z M270.9,319.5"/>
		<g>
			<path d="M144,151.3c-28.2,0-54.9-7.5-75-21.2c-21-14.3-32.6-33.6-32.6-54.4S48,35.5,69,21.2C89.1,7.5,115.8,0,144,0
				c28.2,0,54.9,7.5,75,21.2c21,14.3,32.6,33.6,32.6,54.4S240,115.8,219,130.1C198.9,143.8,172.2,151.3,144,151.3z M144,14.8
				c-25.4,0-49.2,6.7-67,18.8C60.1,45.1,50.9,60,50.9,75.7c0,15.7,9.3,30.6,26.2,42.1c17.8,12.1,41.6,18.8,67,18.8
				c25.4,0,49.2-6.7,67-18.8c16.9-11.5,26.2-26.4,26.2-42.1c0-15.7-9.3-30.6-26.2-42.1C193.2,21.5,169.4,14.8,144,14.8z"/>
		</g>
		<path d="M202.9,69.4h-117c-3.6,0-6.5-2.9-6.5-6.5v-1c0-3.6,2.9-6.5,6.5-6.5h117c3.6,0,6.5,2.9,6.5,6.5v1
			C209.4,66.5,206.5,69.4,202.9,69.4z"/>
		<path d="M202.9,95.6h-117c-3.6,0-6.5-2.9-6.5-6.5v-1c0-3.6,2.9-6.5,6.5-6.5h117c3.6,0,6.5,2.9,6.5,6.5v1
			C209.4,92.7,206.5,95.6,202.9,95.6z"/>
		<circle cx="39.9" cy="177.5" r="9.3"/>
		<circle cx="56.6" cy="150.3" r="9.3"/>
		<circle cx="243" cy="177.5" r="9.3"/>
		<circle cx="142.3" cy="177.5" r="9.3"/>
		<circle cx="226.3" cy="150.3" r="9.3"/>
	</g>
</g>
</svg>
